{
  "accessors": [
    {
      "bufferView": 2,
      "componentType": 5126,
      "count": 412,
      "max": [
        1.0599249601364136,
        0.5742509961128235,
        -0.009909999556839466
      ],
      "min": [
        1.0449600219726563,
        0.5650849938392639,
        -0.010022000409662724
      ],
      "type": "VEC3"
    },
    {
      "bufferView": 2,
      "byteOffset": 4944,
      "componentType": 5126,
      "count": 412,
      "max": [
        1.0,
        1.0,
        1.0
      ],
      "min": [
        -1.0,
        -1.0,
        -1.0
      ],
      "type": "VEC3"
    },
    {
      "bufferView": 0,
      "componentType": 5125,
      "count": 1128,
      "type": "SCALAR"
    },
    {
      "bufferView": 2,
      "byteOffset": 9888,
      "componentType": 5126,
      "count": 3826,
      "max": [
        2.22078800201416,
        1.5106329917907715,
        -1.8762539625167847
      ],
      "min": [
        0.2647939920425415,
        0.5375170111656189,
        -5.085939884185791
      ],
      "type": "VEC3"
    },
    {
      "bufferView": 2,
      "byteOffset": 55800,
      "componentType": 5126,
      "count": 3826,
      "max": [
        0.9999992251396179,
        0.9999325275421143,
        0.9899300336837769
      ],
      "min": [
        -0.9999992251396179,
        -0.997661828994751,
        -0.999965250492096
      ],
      "type": "VEC3"
    },
    {
      "bufferView": 1,
      "componentType": 5126,
      "count": 3826,
      "max": [
        0.9929190278053284,
        -0.0004990000161342323
      ],
      "min": [
        0.0005000000237487257,
        -0.9994999766349792
      ],
      "type": "VEC2"
    },
    {
      "bufferView": 0,
      "byteOffset": 4512,
      "componentType": 5125,
      "count": 12036,
      "type": "SCALAR"
    },
    {
      "bufferView": 2,
      "byteOffset": 101712,
      "componentType": 5126,
      "count": 432,
      "max": [
        2.2718780040740967,
        1.3355920314788818,
        -0.08185099810361862
      ],
      "min": [
        0.21347199380397797,
        0.37938299775123596,
        -5.390110015869141
      ],
      "type": "VEC3"
    },
    {
      "bufferView": 2,
      "byteOffset": 106896,
      "componentType": 5126,
      "count": 432,
      "max": [
        0.9999735355377197,
        0.9733586311340332,
        0.9999993443489075
      ],
      "min": [
        -0.9999736547470093,
        -0.984851598739624,
        -0.9999992847442627
      ],
      "type": "VEC3"
    },
    {
      "bufferView": 1,
      "byteOffset": 30608,
      "componentType": 5126,
      "count": 432,
      "max": [
        1.0111600160598755,
        -0.0022960000205785036
      ],
      "min": [
        0.0005000000237487257,
        -0.9994999766349792
      ],
      "type": "VEC2"
    },
    {
      "bufferView": 0,
      "byteOffset": 52656,
      "componentType": 5125,
      "count": 1584,
      "type": "SCALAR"
    },
    {
      "bufferView": 2,
      "byteOffset": 112080,
      "componentType": 5126,
      "count": 540,
      "max": [
        2.1754720211029053,
        1.00102698802948,
        -0.3009909987449646
      ],
      "min": [
        0.31011098623275757,
        0.932138979434967,
        -0.4919019937515259
      ],
      "type": "VEC3"
    },
    {
      "bufferView": 2,
      "byteOffset": 118560,
      "componentType": 5126,
      "count": 540,
      "max": [
        0.9890261292457581,
        0.9875929951667786,
        0.9998682141304016
      ],
      "min": [
        -0.9890406727790833,
        -0.9987130165100098,
        -0.08702012896537781
      ],
      "type": "VEC3"
    },
    {
      "bufferView": 0,
      "byteOffset": 58992,
      "componentType": 5125,
      "count": 1416,
      "type": "SCALAR"
    },
    {
      "bufferView": 2,
      "byteOffset": 125040,
      "componentType": 5126,
      "count": 866,
      "max": [
        2.180130958557129,
        1.6757090091705322,
        -3.317760944366455
      ],
      "min": [
        0.2996729910373688,
        0.7322459816932678,
        -5.219974040985107
      ],
      "type": "VEC3"
    },
    {
      "bufferView": 2,
      "byteOffset": 135432,
      "componentType": 5126,
      "count": 866,
      "max": [
        0.9991723299026489,
        1.0,
        0.9999622106552124
      ],
      "min": [
        -0.999998152256012,
        -0.9988871216773987,
        -0.9977985620498657
      ],
      "type": "VEC3"
    },
    {
      "bufferView": 1,
      "byteOffset": 34064,
      "componentType": 5126,
      "count": 866,
      "max": [
        0.9912629723548889,
        -0.0004990000161342323
      ],
      "min": [
        -0.024778999388217926,
        -0.9994999766349792
      ],
      "type": "VEC2"
    },
    {
      "bufferView": 0,
      "byteOffset": 64656,
      "componentType": 5125,
      "count": 2916,
      "type": "SCALAR"
    },
    {
      "bufferView": 2,
      "byteOffset": 145824,
      "componentType": 5126,
      "count": 2720,
      "max": [
        2.3189239501953125,
        0.7418230175971985,
        -0.6578199863433838
      ],
      "min": [
        0.16665899753570557,
        0.08630499988794327,
        -4.604204177856445
      ],
      "type": "VEC3"
    },
    {
      "bufferView": 2,
      "byteOffset": 178464,
      "componentType": 5126,
      "count": 2720,
      "max": [
        0.9999971985816956,
        0.38101115822792053,
        0.38869431614875793
      ],
      "min": [
        -0.9999971985816956,
        -0.37993574142456055,
        -0.38868361711502075
      ],
      "type": "VEC3"
    },
    {
      "bufferView": 0,
      "byteOffset": 76320,
      "componentType": 5125,
      "count": 8160,
      "type": "SCALAR"
    },
    {
      "bufferView": 2,
      "byteOffset": 211104,
      "componentType": 5126,
      "count": 1811,
      "max": [
        2.1841518878936768,
        1.8703409433364868,
        -1.5268609523773193
      ],
      "min": [
        0.30143100023269653,
        0.4927000105381012,
        -5.323629856109619
      ],
      "type": "VEC3"
    },
    {
      "bufferView": 2,
      "byteOffset": 232836,
      "componentType": 5126,
      "count": 1811,
      "max": [
        0.9995121955871582,
        1.0,
        1.0
      ],
      "min": [
        -1.0,
        -1.0,
        -1.0
      ],
      "type": "VEC3"
    },
    {
      "bufferView": 0,
      "byteOffset": 108960,
      "componentType": 5125,
      "count": 5166,
      "type": "SCALAR"
    },
    {
      "bufferView": 2,
      "byteOffset": 254568,
      "componentType": 5126,
      "count": 144,
      "max": [
        2.1802361011505127,
        0.6339640021324158,
        -0.765550971031189
      ],
      "min": [
        0.3053469955921173,
        0.2022159993648529,
        -4.494667053222656
      ],
      "type": "VEC3"
    },
    {
      "bufferView": 2,
      "byteOffset": 256296,
      "componentType": 5126,
      "count": 144,
      "max": [
        0.9999986886978149,
        0.000859134248457849,
        -0.0016598987858742476
      ],
      "min": [
        -0.9999986886978149,
        -0.0010809960076585412,
        -0.0036104123573750257
      ],
      "type": "VEC3"
    },
    {
      "bufferView": 0,
      "byteOffset": 129624,
      "componentType": 5125,
      "count": 432,
      "type": "SCALAR"
    },
    {
      "bufferView": 2,
      "byteOffset": 258024,
      "componentType": 5126,
      "count": 2980,
      "max": [
        2.2627010345458984,
        0.6095280051231384,
        -1.099478006362915
      ],
      "min": [
        0.2228820025920868,
        0.20015199482440948,
        -4.162856101989746
      ],
      "type": "VEC3"
    },
    {
      "bufferView": 2,
      "byteOffset": 293784,
      "componentType": 5126,
      "count": 2980,
      "max": [
        1.0,
        0.9996194243431091,
        0.9999896287918091
      ],
      "min": [
        -1.0,
        -0.9997862577438354,
        -0.9999740719795227
      ],
      "type": "VEC3"
    },
    {
      "bufferView": 0,
      "byteOffset": 131352,
      "componentType": 5125,
      "count": 8472,
      "type": "SCALAR"
    },
    {
      "bufferView": 2,
      "byteOffset": 329544,
      "componentType": 5126,
      "count": 76,
      "max": [
        2.2312049865722656,
        1.3498120307922363,
        -4.793776035308838
      ],
      "min": [
        0.25437799096107483,
        1.1120879650115967,
        -5.35232400894165
      ],
      "type": "VEC3"
    },
    {
      "bufferView": 2,
      "byteOffset": 330456,
      "componentType": 5126,
      "count": 76,
      "max": [
        0.9301638007164001,
        0.4569355845451355,
        -0.17123663425445557
      ],
      "min": [
        -0.9301642179489136,
        -0.08105317503213882,
        -0.9901351928710938
      ],
      "type": "VEC3"
    },
    {
      "bufferView": 1,
      "byteOffset": 40992,
      "componentType": 5126,
      "count": 76,
      "max": [
        0.9994999766349792,
        -0.005621999967843294
      ],
      "min": [
        0.0005000000237487257,
        -0.9994999766349792
      ],
      "type": "VEC2"
    },
    {
      "bufferView": 0,
      "byteOffset": 165240,
      "componentType": 5125,
      "count": 204,
      "type": "SCALAR"
    },
    {
      "bufferView": 2,
      "byteOffset": 331368,
      "componentType": 5126,
      "count": 76,
      "max": [
        2.3204970359802246,
        0.9683409929275513,
        -1.5607709884643555
      ],
      "min": [
        0.16539700329303741,
        0.9471049904823303,
        -1.596397042274475
      ],
      "type": "VEC3"
    },
    {
      "bufferView": 2,
      "byteOffset": 332280,
      "componentType": 5126,
      "count": 76,
      "max": [
        0.9993947148323059,
        0.9932606816291809,
        0.9010071158409119
      ],
      "min": [
        -0.9999381303787231,
        -0.993268609046936,
        -0.900818407535553
      ],
      "type": "VEC3"
    },
    {
      "bufferView": 0,
      "byteOffset": 166056,
      "componentType": 5125,
      "count": 168,
      "type": "SCALAR"
    },
    {
      "bufferView": 2,
      "byteOffset": 333192,
      "componentType": 5126,
      "count": 76,
      "max": [
        2.3207709789276123,
        0.9691439867019653,
        -1.5593639612197876
      ],
      "min": [
        0.1655779927968979,
        0.9475039839744568,
        -1.5956000089645386
      ],
      "type": "VEC3"
    },
    {
      "bufferView": 2,
      "byteOffset": 334104,
      "componentType": 5126,
      "count": 76,
      "max": [
        0.9993908405303955,
        0.9932546019554138,
        0.9010459184646606
      ],
      "min": [
        -0.9999371767044067,
        -0.9932522177696228,
        -0.9010671973228455
      ],
      "type": "VEC3"
    },
    {
      "bufferView": 0,
      "byteOffset": 166728,
      "componentType": 5125,
      "count": 168,
      "type": "SCALAR"
    },
    {
      "bufferView": 2,
      "byteOffset": 335016,
      "componentType": 5126,
      "count": 1426,
      "max": [
        2.227642059326172,
        1.7940829992294312,
        -4.81915807723999
      ],
      "min": [
        0.25794100761413574,
        0.8263800144195557,
        -5.361116886138916
      ],
      "type": "VEC3"
    },
    {
      "bufferView": 2,
      "byteOffset": 352128,
      "componentType": 5126,
      "count": 1426,
      "max": [
        0.9999725818634033,
        1.0,
        0.4972127079963684
      ],
      "min": [
        -0.9999726414680481,
        -0.9999978542327881,
        -0.9999217987060547
      ],
      "type": "VEC3"
    },
    {
      "bufferView": 0,
      "byteOffset": 167400,
      "componentType": 5125,
      "count": 5322,
      "type": "SCALAR"
    },
    {
      "bufferView": 2,
      "byteOffset": 369240,
      "componentType": 5126,
      "count": 76,
      "max": [
        2.320633888244629,
        0.9685239791870117,
        -1.5675920248031616
      ],
      "min": [
        0.16548700630664825,
        0.9477059841156006,
        -1.588168978691101
      ],
      "type": "VEC3"
    },
    {
      "bufferView": 2,
      "byteOffset": 370152,
      "componentType": 5126,
      "count": 76,
      "max": [
        0.999393105506897,
        0.9932541251182556,
        0.9010724425315857
      ],
      "min": [
        -0.999936044216156,
        -0.9932583570480347,
        -0.9007943272590637
      ],
      "type": "VEC3"
    },
    {
      "bufferView": 0,
      "byteOffset": 188688,
      "componentType": 5125,
      "count": 168,
      "type": "SCALAR"
    },
    {
      "bufferView": 2,
      "byteOffset": 371064,
      "componentType": 5126,
      "count": 17648,
      "max": [
        2.3189239501953125,
        0.7506440281867981,
        -0.6492149829864502
      ],
      "min": [
        0.16665899753570557,
        0.07785800099372864,
        -4.612809181213379
      ],
      "type": "VEC3"
    },
    {
      "bufferView": 2,
      "byteOffset": 582840,
      "componentType": 5126,
      "count": 17648,
      "max": [
        1.0,
        0.9999999403953552,
        1.0
      ],
      "min": [
        -1.0,
        -1.0,
        -0.9999200105667114
      ],
      "type": "VEC3"
    },
    {
      "bufferView": 0,
      "byteOffset": 189360,
      "componentType": 5125,
      "count": 58380,
      "type": "SCALAR"
    },
    {
      "bufferView": 2,
      "byteOffset": 794616,
      "componentType": 5126,
      "count": 572,
      "max": [
        2.1853199005126953,
        1.3191570043563843,
        -4.966813087463379
      ],
      "min": [
        0.300262987613678,
        1.1697750091552734,
        -5.3394670486450195
      ],
      "type": "VEC3"
    },
    {
      "bufferView": 2,
      "byteOffset": 801480,
      "componentType": 5126,
      "count": 572,
      "max": [
        0.9756618142127991,
        0.9998213052749634,
        0.7390071153640747
      ],
      "min": [
        -0.9756250977516174,
        -0.999634861946106,
        -0.9757947325706482
      ],
      "type": "VEC3"
    },
    {
      "bufferView": 0,
      "byteOffset": 422880,
      "componentType": 5125,
      "count": 1464,
      "type": "SCALAR"
    },
    {
      "bufferView": 2,
      "byteOffset": 808344,
      "componentType": 5126,
      "count": 2278,
      "max": [
        2.0112040042877197,
        1.6519650220870972,
        -2.3604769706726074
      ],
      "min": [
        0.4743790030479431,
        0.6704080104827881,
        -3.2950570583343506
      ],
      "type": "VEC3"
    },
    {
      "bufferView": 2,
      "byteOffset": 835680,
      "componentType": 5126,
      "count": 2278,
      "max": [
        0.9999972581863403,
        1.0,
        0.9999979734420776
      ],
      "min": [
        -0.9999973177909851,
        -1.0,
        -0.999954879283905
      ],
      "type": "VEC3"
    },
    {
      "bufferView": 1,
      "byteOffset": 41600,
      "componentType": 5126,
      "count": 2278,
      "max": [
        0.9994999766349792,
        -0.002065999899059534
      ],
      "min": [
        0.0005000000237487257,
        -0.9994999766349792
      ],
      "type": "VEC2"
    },
    {
      "bufferView": 0,
      "byteOffset": 428736,
      "componentType": 5125,
      "count": 7302,
      "type": "SCALAR"
    },
    {
      "bufferView": 2,
      "byteOffset": 863016,
      "componentType": 5126,
      "count": 1237,
      "max": [
        1.8880959749221802,
        1.4662909507751465,
        -1.6527329683303833
      ],
      "min": [
        1.0268100500106812,
        0.577180027961731,
        -3.114001989364624
      ],
      "type": "VEC3"
    },
    {
      "bufferView": 2,
      "byteOffset": 877860,
      "componentType": 5126,
      "count": 1237,
      "max": [
        0.999987781047821,
        0.9999516010284424,
        0.9993893504142761
      ],
      "min": [
        -0.999987781047821,
        -0.9993898272514343,
        -0.9998751282691956
      ],
      "type": "VEC3"
    },
    {
      "bufferView": 1,
      "byteOffset": 59824,
      "componentType": 5126,
      "count": 1237,
      "max": [
        0.9970530271530151,
        -0.002067999914288521
      ],
      "min": [
        0.002090000081807375,
        -0.9961000084877014
      ],
      "type": "VEC2"
    },
    {
      "bufferView": 0,
      "byteOffset": 457944,
      "componentType": 5125,
      "count": 3438,
      "type": "SCALAR"
    },
    {
      "bufferView": 2,
      "byteOffset": 892704,
      "componentType": 5126,
      "count": 962,
      "max": [
        1.9547699689865112,
        1.041964054107666,
        -5.265456199645996
      ],
      "min": [
        0.5133020281791687,
        1.0074620246887207,
        -5.319300174713135
      ],
      "type": "VEC3"
    },
    {
      "bufferView": 2,
      "byteOffset": 904248,
      "componentType": 5126,
      "count": 962,
      "max": [
        0.986609160900116,
        0.9994984269142151,
        0.33111757040023804
      ],
      "min": [
        -0.9816654920578003,
        -0.9998510479927063,
        -0.9998641014099121
      ],
      "type": "VEC3"
    },
    {
      "bufferView": 0,
      "byteOffset": 471696,
      "componentType": 5125,
      "count": 2028,
      "type": "SCALAR"
    },
    {
      "bufferView": 2,
      "byteOffset": 915792,
      "componentType": 5126,
      "count": 5,
      "max": [
        0.6935030221939087,
        1.027655005455017,
        -5.293994903564453
      ],
      "min": [
        0.6109430193901062,
        1.0115660429000854,
        -5.312755107879639
      ],
      "type": "VEC3"
    },
    {
      "bufferView": 2,
      "byteOffset": 915852,
      "componentType": 5126,
      "count": 5,
      "max": [
        -0.2200050801038742,
        -0.016211247071623802,
        -0.9644371867179871
      ],
      "min": [
        -0.23196671903133392,
        -0.14648783206939697,
        -0.9730532765388489
      ],
      "type": "VEC3"
    },
    {
      "bufferView": 0,
      "byteOffset": 479808,
      "componentType": 5125,
      "count": 9,
      "type": "SCALAR"
    },
    {
      "bufferView": 2,
      "byteOffset": 915912,
      "componentType": 5126,
      "count": 122,
      "max": [
        2.2082018852233887,
        1.0247620344161987,
        -0.21854199469089508
      ],
      "min": [
        0.2773810029029846,
        0.8950930237770081,
        -0.4598639905452728
      ],
      "type": "VEC3"
    },
    {
      "bufferView": 2,
      "byteOffset": 917376,
      "componentType": 5126,
      "count": 122,
      "max": [
        0.6398028135299683,
        0.02455461025238037,
        0.8991331458091736
      ],
      "min": [
        -0.6397891044616699,
        -0.06592188030481339,
        0.76846843957901
      ],
      "type": "VEC3"
    },
    {
      "bufferView": 0,
      "byteOffset": 479844,
      "componentType": 5125,
      "count": 342,
      "type": "SCALAR"
    },
    {
      "bufferView": 2,
      "byteOffset": 918840,
      "componentType": 5126,
      "count": 504,
      "max": [
        2.229085922241211,
        0.6736469864845276,
        -0.7252619862556458
      ],
      "min": [
        0.25649601221084595,
        0.1625330001115799,
        -4.534966945648193
      ],
      "type": "VEC3"
    },
    {
      "bufferView": 2,
      "byteOffset": 924888,
      "componentType": 5126,
      "count": 504,
      "max": [
        0.9999975562095642,
        0.9848489761352539,
        1.0
      ],
      "min": [
        -0.9999977350234985,
        -0.9848508834838867,
        -1.0
      ],
      "type": "VEC3"
    },
    {
      "bufferView": 0,
      "byteOffset": 481212,
      "componentType": 5125,
      "count": 1440,
      "type": "SCALAR"
    },
    {
      "bufferView": 2,
      "byteOffset": 930936,
      "componentType": 5126,
      "count": 2478,
      "max": [
        2.2593460083007813,
        1.0695890188217163,
        -0.13960400223731995
      ],
      "min": [
        0.2262369990348816,
        0.6992149949073792,
        -0.6529690027236938
      ],
      "type": "VEC3"
    },
    {
      "bufferView": 2,
      "byteOffset": 960672,
      "componentType": 5126,
      "count": 2478,
      "max": [
        0.9947946667671204,
        0.9997173547744751,
        0.9978886842727661
      ],
      "min": [
        -0.9947918057441711,
        -0.9952895641326904,
        -0.5602753162384033
      ],
      "type": "VEC3"
    },
    {
      "bufferView": 0,
      "byteOffset": 486972,
      "componentType": 5125,
      "count": 7572,
      "type": "SCALAR"
    },
    {
      "bufferView": 2,
      "byteOffset": 990408,
      "componentType": 5126,
      "count": 498,
      "max": [
        2.230573892593384,
        1.055163025856018,
        -0.15428799390792847
      ],
      "min": [
        0.2550089955329895,
        0.8836359977722168,
        -0.6510639786720276
      ],
      "type": "VEC3"
    },
    {
      "bufferView": 2,
      "byteOffset": 996384,
      "componentType": 5126,
      "count": 498,
      "max": [
        0.9933384656906128,
        0.996102511882782,
        0.9863090515136719
      ],
      "min": [
        -0.9933383464813232,
        -0.9984839558601379,
        0.027452103793621063
      ],
      "type": "VEC3"
    },
    {
      "bufferView": 0,
      "byteOffset": 517260,
      "componentType": 5125,
      "count": 1524,
      "type": "SCALAR"
    },
    {
      "bufferView": 2,
      "byteOffset": 1002360,
      "componentType": 5126,
      "count": 106,
      "max": [
        2.141602039337158,
        1.2897659540176392,
        -5.083792209625244
      ],
      "min": [
        0.343980997800827,
        1.1415239572525024,
        -5.339179039001465
      ],
      "type": "VEC3"
    },
    {
      "bufferView": 2,
      "byteOffset": 1003632,
      "componentType": 5126,
      "count": 106,
      "max": [
        0.9978188872337341,
        0.19802114367485046,
        0.048459626734256744
      ],
      "min": [
        -0.9978229403495789,
        -0.4719572961330414,
        -0.9934061169624329
      ],
      "type": "VEC3"
    },
    {
      "bufferView": 0,
      "byteOffset": 523356,
      "componentType": 5125,
      "count": 258,
      "type": "SCALAR"
    },
    {
      "bufferView": 2,
      "byteOffset": 1004904,
      "componentType": 5126,
      "count": 1088,
      "max": [
        2.3256731033325195,
        0.8285139799118042,
        -0.5716720223426819
      ],
      "min": [
        0.15990999341011047,
        0.0,
        -4.690906047821045
      ],
      "type": "VEC3"
    },
    {
      "bufferView": 2,
      "byteOffset": 1017960,
      "componentType": 5126,
      "count": 1088,
      "max": [
        0.9872118830680847,
        0.9999147653579712,
        0.9998629689216614
      ],
      "min": [
        -0.9872149229049683,
        -0.9997991919517517,
        -0.9998632669448853
      ],
      "type": "VEC3"
    },
    {
      "bufferView": 1,
      "byteOffset": 69720,
      "componentType": 5126,
      "count": 1088,
      "max": [
        0.7459800243377686,
        -0.0004990000161342323
      ],
      "min": [
        0.0005000000237487257,
        -0.9994999766349792
      ],
      "type": "VEC2"
    },
    {
      "bufferView": 0,
      "byteOffset": 524388,
      "componentType": 5125,
      "count": 5376,
      "type": "SCALAR"
    },
    {
      "bufferView": 2,
      "byteOffset": 1031016,
      "componentType": 5126,
      "count": 4606,
      "max": [
        2.273984909057617,
        1.086927056312561,
        -0.1253959983587265
      ],
      "min": [
        0.21159599721431732,
        0.6981220245361328,
        -0.7056499719619751
      ],
      "type": "VEC3"
    },
    {
      "bufferView": 2,
      "byteOffset": 1086288,
      "componentType": 5126,
      "count": 4606,
      "max": [
        0.9999973177909851,
        0.9999987483024597,
        1.0
      ],
      "min": [
        -0.9999973773956299,
        -0.9999784827232361,
        -0.8957677483558655
      ],
      "type": "VEC3"
    },
    {
      "bufferView": 0,
      "byteOffset": 545892,
      "componentType": 5125,
      "count": 12702,
      "type": "SCALAR"
    },
    {
      "bufferView": 2,
      "byteOffset": 1141560,
      "componentType": 5126,
      "count": 114,
      "max": [
        2.2326860427856445,
        1.0709209442138672,
        -0.2028380036354065
      ],
      "min": [
        0.2528969943523407,
        1.0150829553604126,
        -0.6429910063743591
      ],
      "type": "VEC3"
    },
    {
      "bufferView": 2,
      "byteOffset": 1142928,
      "componentType": 5126,
      "count": 114,
      "max": [
        0.7840770483016968,
        0.8403751254081726,
        0.5877721309661865
      ],
      "min": [
        -0.7840720415115356,
        0.590335488319397,
        0.17054064571857452
      ],
      "type": "VEC3"
    },
    {
      "bufferView": 0,
      "byteOffset": 596700,
      "componentType": 5125,
      "count": 318,
      "type": "SCALAR"
    },
    {
      "bufferView": 2,
      "byteOffset": 1144296,
      "componentType": 5126,
      "count": 792,
      "max": [
        2.1358070373535156,
        1.4376859664916992,
        -1.3486289978027344
      ],
      "min": [
        0.38807401061058044,
        0.8604840040206909,
        -2.2160511016845703
      ],
      "type": "VEC3"
    },
    {
      "bufferView": 2,
      "byteOffset": 1153800,
      "componentType": 5126,
      "count": 792,
      "max": [
        0.9990268349647522,
        0.9998271465301514,
        0.9815225005149841
      ],
      "min": [
        -0.9993839859962463,
        -0.8987821340560913,
        -0.9937482476234436
      ],
      "type": "VEC3"
    },
    {
      "bufferView": 1,
      "byteOffset": 78424,
      "componentType": 5126,
      "count": 792,
      "max": [
        0.9994999766349792,
        -0.030741000548005104
      ],
      "min": [
        0.0005000000237487257,
        -0.9994999766349792
      ],
      "type": "VEC2"
    },
    {
      "bufferView": 0,
      "byteOffset": 597972,
      "componentType": 5125,
      "count": 2601,
      "type": "SCALAR"
    },
    {
      "bufferView": 2,
      "byteOffset": 1163304,
      "componentType": 5126,
      "count": 1464,
      "max": [
        2.1014959812164307,
        1.8805960416793823,
        -1.7180049419403076
      ],
      "min": [
        0.3840869963169098,
        1.2803740501403809,
        -5.073637008666992
      ],
      "type": "VEC3"
    },
    {
      "bufferView": 2,
      "byteOffset": 1180872,
      "componentType": 5126,
      "count": 1464,
      "max": [
        0.999488115310669,
        0.978016197681427,
        1.0
      ],
      "min": [
        -0.9994880557060242,
        -0.9999045729637146,
        -0.999825656414032
      ],
      "type": "VEC3"
    },
    {
      "bufferView": 1,
      "byteOffset": 84760,
      "componentType": 5126,
      "count": 1464,
      "max": [
        0.9994999766349792,
        -0.002283999929204583
      ],
      "min": [
        0.0005000000237487257,
        -0.9994999766349792
      ],
      "type": "VEC2"
    },
    {
      "bufferView": 0,
      "byteOffset": 608376,
      "componentType": 5125,
      "count": 4716,
      "type": "SCALAR"
    },
    {
      "bufferView": 2,
      "byteOffset": 1198440,
      "componentType": 5126,
      "count": 28075,
      "max": [
        2.4851059913635254,
        1.961338996887207,
        -0.018206000328063965
      ],
      "min": [
        0.00047599998652003706,
        0.3903680145740509,
        -5.364327907562256
      ],
      "type": "VEC3"
    },
    {
      "bufferView": 2,
      "byteOffset": 1535340,
      "componentType": 5126,
      "count": 28075,
      "max": [
        1.0,
        1.0,
        1.0
      ],
      "min": [
        -1.0,
        -1.0,
        -1.0
      ],
      "type": "VEC3"
    },
    {
      "bufferView": 0,
      "byteOffset": 627240,
      "componentType": 5125,
      "count": 79701,
      "type": "SCALAR"
    },
    {
      "bufferView": 2,
      "byteOffset": 1872240,
      "componentType": 5126,
      "count": 516,
      "max": [
        2.4855830669403076,
        1.3547389507293701,
        -0.12354599684476852
      ],
      "min": [
        0.0,
        0.6898930072784424,
        -2.1225759983062744
      ],
      "type": "VEC3"
    },
    {
      "bufferView": 2,
      "byteOffset": 1878432,
      "componentType": 5126,
      "count": 516,
      "max": [
        0.9958117008209229,
        0.9999669194221497,
        0.9543105959892273
      ],
      "min": [
        -0.9958122968673706,
        -0.999977707862854,
        -0.9915943741798401
      ],
      "type": "VEC3"
    },
    {
      "bufferView": 0,
      "byteOffset": 946044,
      "componentType": 5125,
      "count": 2088,
      "type": "SCALAR"
    },
    {
      "bufferView": 2,
      "byteOffset": 1884624,
      "componentType": 5126,
      "count": 276,
      "max": [
        2.2123329639434814,
        1.03274405002594,
        -0.21854199469089508
      ],
      "min": [
        0.273250013589859,
        0.8911380171775818,
        -0.5228220224380493
      ],
      "type": "VEC3"
    },
    {
      "bufferView": 2,
      "byteOffset": 1887936,
      "componentType": 5126,
      "count": 276,
      "max": [
        0.9953597784042358,
        0.9998809695243835,
        0.10805432498455048
      ],
      "min": [
        -0.9953595995903015,
        -0.9989239573478699,
        -0.1075645312666893
      ],
      "type": "VEC3"
    },
    {
      "bufferView": 0,
      "byteOffset": 954396,
      "componentType": 5125,
      "count": 732,
      "type": "SCALAR"
    },
    {
      "bufferView": 2,
      "byteOffset": 1891248,
      "componentType": 5126,
      "count": 358,
      "max": [
        2.1232240200042725,
        0.5757309794425964,
        -4.721868991851807
      ],
      "min": [
        0.3623589873313904,
        0.3405959904193878,
        -5.385293006896973
      ],
      "type": "VEC3"
    },
    {
      "bufferView": 2,
      "byteOffset": 1895544,
      "componentType": 5126,
      "count": 358,
      "max": [
        0.99944007396698,
        0.9999983906745911,
        0.991269052028656
      ],
      "min": [
        -0.9994400143623352,
        -0.999997615814209,
        -0.9912694692611694
      ],
      "type": "VEC3"
    },
    {
      "bufferView": 0,
      "byteOffset": 957324,
      "componentType": 5125,
      "count": 1188,
      "type": "SCALAR"
    },
    {
      "bufferView": 2,
      "byteOffset": 1899840,
      "componentType": 5126,
      "count": 444,
      "max": [
        2.1873509883880615,
        1.8506070375442505,
        -1.4368809461593628
      ],
      "min": [
        0.29823100566864014,
        1.253242015838623,
        -5.326520919799805
      ],
      "type": "VEC3"
    },
    {
      "bufferView": 2,
      "byteOffset": 1905168,
      "componentType": 5126,
      "count": 444,
      "max": [
        0.9730666279792786,
        0.8797804117202759,
        0.5862537622451782
      ],
      "min": [
        -0.9730669260025024,
        0.2292345017194748,
        -0.7309954762458801
      ],
      "type": "VEC3"
    },
    {
      "bufferView": 0,
      "byteOffset": 962076,
      "componentType": 5125,
      "count": 1938,
      "type": "SCALAR"
    },
    {
      "bufferView": 2,
      "byteOffset": 1910496,
      "componentType": 5126,
      "count": 432,
      "max": [
        2.32796311378479,
        1.3874640464782715,
        -0.377903014421463
      ],
      "min": [
        0.15761999785900116,
        0.3824490010738373,
        -4.250953197479248
      ],
      "type": "VEC3"
    },
    {
      "bufferView": 2,
      "byteOffset": 1915680,
      "componentType": 5126,
      "count": 432,
      "max": [
        0.9999986886978149,
        0.942647397518158,
        0.6897795796394348
      ],
      "min": [
        -0.9999987483024597,
        -0.4521638751029968,
        -0.17822788655757904
      ],
      "type": "VEC3"
    },
    {
      "bufferView": 0,
      "byteOffset": 969828,
      "componentType": 5125,
      "count": 1140,
      "type": "SCALAR"
    },
    {
      "bufferView": 2,
      "byteOffset": 1920864,
      "componentType": 5126,
      "count": 60,
      "max": [
        2.4837779998779297,
        1.3547389507293701,
        -1.9477490186691284
      ],
      "min": [
        0.0018050000071525574,
        1.3354469537734985,
        -2.120296001434326
      ],
      "type": "VEC3"
    },
    {
      "bufferView": 2,
      "byteOffset": 1921584,
      "componentType": 5126,
      "count": 60,
      "max": [
        0.9959074258804321,
        0.11810523271560669,
        0.9543077945709229
      ],
      "min": [
        -0.9959059953689575,
        -0.10305016487836838,
        -0.8175954222679138
      ],
      "type": "VEC3"
    },
    {
      "bufferView": 0,
      "byteOffset": 974388,
      "componentType": 5125,
      "count": 156,
      "type": "SCALAR"
    },
    {
      "bufferView": 2,
      "byteOffset": 1922304,
      "componentType": 5126,
      "count": 108,
      "max": [
        1.7460600137710571,
        1.9468539953231812,
        -2.557737112045288
      ],
      "min": [
        0.7395229935646057,
        1.872135043144226,
        -3.993494987487793
      ],
      "type": "VEC3"
    },
    {
      "bufferView": 2,
      "byteOffset": 1923600,
      "componentType": 5126,
      "count": 108,
      "max": [
        0.09456013888120651,
        1.0,
        0.15633609890937805
      ],
      "min": [
        -0.09455970674753189,
        0.9831670522689819,
        -0.051840778440237045
      ],
      "type": "VEC3"
    },
    {
      "bufferView": 0,
      "byteOffset": 975012,
      "componentType": 5125,
      "count": 528,
      "type": "SCALAR"
    },
    {
      "bufferView": 2,
      "byteOffset": 1924896,
      "componentType": 5126,
      "count": 18,
      "max": [
        1.3694039583206177,
        1.714413046836853,
        -2.245300054550171
      ],
      "min": [
        1.1161789894104004,
        1.654623031616211,
        -2.2490780353546143
      ],
      "type": "VEC3"
    },
    {
      "bufferView": 2,
      "byteOffset": 1925112,
      "componentType": 5126,
      "count": 18,
      "max": [
        0.1047763079404831,
        0.34456151723861694,
        -0.9386780261993408
      ],
      "min": [
        -0.10477631539106369,
        0.0050580743700265884,
        -0.9999871850013733
      ],
      "type": "VEC3"
    },
    {
      "bufferView": 0,
      "byteOffset": 977124,
      "componentType": 5125,
      "count": 48,
      "type": "SCALAR"
    },
    {
      "bufferView": 2,
      "byteOffset": 1925328,
      "componentType": 5126,
      "count": 20,
      "max": [
        2.4730799198150635,
        1.4642210006713867,
        -2.0508430004119873
      ],
      "min": [
        0.012502999976277351,
        1.297307014465332,
        -2.1129050254821777
      ],
      "type": "VEC3"
    },
    {
      "bufferView": 2,
      "byteOffset": 1925568,
      "componentType": 5126,
      "count": 20,
      "max": [
        0.2859153747558594,
        0.04215848445892334,
        -0.9573280811309814
      ],
      "min": [
        -0.28591591119766235,
        0.04205130413174629,
        -0.9573480486869812
      ],
      "type": "VEC3"
    },
    {
      "bufferView": 0,
      "byteOffset": 977316,
      "componentType": 5125,
      "count": 48,
      "type": "SCALAR"
    },
    {
      "bufferView": 2,
      "byteOffset": 1925808,
      "componentType": 5126,
      "count": 13388,
      "max": [
        2.4839329719543457,
        1.9728790521621704,
        -0.018084999173879623
      ],
      "min": [
        0.0016499999910593033,
        0.2613089978694916,
        -5.46332311630249
      ],
      "type": "VEC3"
    },
    {
      "bufferView": 2,
      "byteOffset": 2086464,
      "componentType": 5126,
      "count": 13388,
      "max": [
        0.9999996423721313,
        1.0,
        1.0
      ],
      "min": [
        -0.9999997019767761,
        -1.0,
        -0.9999937415122986
      ],
      "type": "VEC3"
    },
    {
      "bufferView": 0,
      "byteOffset": 977508,
      "componentType": 5125,
      "count": 52767,
      "type": "SCALAR"
    },
    {
      "bufferView": 2,
      "byteOffset": 2247120,
      "componentType": 5126,
      "count": 548,
      "max": [
        1.8832629919052124,
        0.5435220003128052,
        -5.283030986785889
      ],
      "min": [
        0.6023200154304504,
        0.38512399792671204,
        -5.467543125152588
      ],
      "type": "VEC3"
    },
    {
      "bufferView": 2,
      "byteOffset": 2253696,
      "componentType": 5126,
      "count": 548,
      "max": [
        0.9436390995979309,
        0.9972661137580872,
        0.02197820134460926
      ],
      "min": [
        -0.9436428546905518,
        -0.9799935817718506,
        -0.9972764253616333
      ],
      "type": "VEC3"
    },
    {
      "bufferView": 0,
      "byteOffset": 1188576,
      "componentType": 5125,
      "count": 2154,
      "type": "SCALAR"
    },
    {
      "bufferView": 2,
      "byteOffset": 2260272,
      "componentType": 5126,
      "count": 1686,
      "max": [
        2.2654359340667725,
        0.6415489912033081,
        -4.776609897613525
      ],
      "min": [
        0.2201469987630844,
        0.32763800024986267,
        -5.466557025909424
      ],
      "type": "VEC3"
    },
    {
      "bufferView": 2,
      "byteOffset": 2280504,
      "componentType": 5126,
      "count": 1686,
      "max": [
        0.9968047738075256,
        0.9928067326545715,
        0.9912797212600708
      ],
      "min": [
        -0.996795117855072,
        -0.9920127391815186,
        -0.9974653720855713
      ],
      "type": "VEC3"
    },
    {
      "bufferView": 0,
      "byteOffset": 1197192,
      "componentType": 5125,
      "count": 6258,
      "type": "SCALAR"
    },
    {
      "bufferView": 2,
      "byteOffset": 2300736,
      "componentType": 5126,
      "count": 532,
      "max": [
        1.7794519662857056,
        1.5368800163269043,
        -0.022081999108195305
      ],
      "min": [
        0.7109749913215637,
        0.7234010100364685,
        -4.1745171546936035
      ],
      "type": "VEC3"
    },
    {
      "bufferView": 2,
      "byteOffset": 2307120,
      "componentType": 5126,
      "count": 532,
      "max": [
        0.9011441469192505,
        0.5153059363365173,
        0.9998699426651001
      ],
      "min": [
        -1.0,
        -0.5827155113220215,
        -0.9751484394073486
      ],
      "type": "VEC3"
    },
    {
      "bufferView": 0,
      "byteOffset": 1222224,
      "componentType": 5125,
      "count": 1104,
      "type": "SCALAR"
    },
    {
      "bufferView": 2,
      "byteOffset": 2313504,
      "componentType": 5126,
      "count": 1852,
      "max": [
        2.466778039932251,
        1.32294499874115,
        -0.018039999529719353
      ],
      "min": [
        0.018804000690579414,
        0.4170989990234375,
        -5.4100661277771
      ],
      "type": "VEC3"
    },
    {
      "bufferView": 2,
      "byteOffset": 2335728,
      "componentType": 5126,
      "count": 1852,
      "max": [
        0.9998102784156799,
        0.9986127614974976,
        0.9999281167984009
      ],
      "min": [
        -0.9999164938926697,
        -0.9981710910797119,
        -0.9956520199775696
      ],
      "type": "VEC3"
    },
    {
      "bufferView": 0,
      "byteOffset": 1226640,
      "componentType": 5125,
      "count": 5868,
      "type": "SCALAR"
    },
    {
      "bufferView": 2,
      "byteOffset": 2357952,
      "componentType": 5126,
      "count": 936,
      "max": [
        2.2519938945770264,
        1.2121119499206543,
        -0.02712099999189377
      ],
      "min": [
        0.23358899354934692,
        0.27672499418258667,
        -5.3483710289001465
      ],
      "type": "VEC3"
    },
    {
      "bufferView": 2,
      "byteOffset": 2369184,
      "componentType": 5126,
      "count": 936,
      "max": [
        0.9988689422607422,
        0.9949249029159546,
        0.9961277842521667
      ],
      "min": [
        -0.9988691210746765,
        -0.9949222207069397,
        -0.9999474883079529
      ],
      "type": "VEC3"
    },
    {
      "bufferView": 0,
      "byteOffset": 1250112,
      "componentType": 5125,
      "count": 2286,
      "type": "SCALAR"
    },
    {
      "bufferView": 2,
      "byteOffset": 2380416,
      "componentType": 5126,
      "count": 1452,
      "max": [
        2.321950912475586,
        1.3261679410934448,
        -0.031950000673532486
      ],
      "min": [
        0.16362899541854858,
        0.25476598739624023,
        -5.39939022064209
      ],
      "type": "VEC3"
    },
    {
      "bufferView": 2,
      "byteOffset": 2397840,
      "componentType": 5126,
      "count": 1452,
      "max": [
        0.999912440776825,
        0.9999983310699463,
        1.0
      ],
      "min": [
        -0.999912440776825,
        -0.999984622001648,
        -0.9999449849128723
      ],
      "type": "VEC3"
    },
    {
      "bufferView": 0,
      "byteOffset": 1259256,
      "componentType": 5125,
      "count": 5340,
      "type": "SCALAR"
    }
  ],
  "asset": {
    "extras": {
      "author": "Ddiaz Design (https://sketchfab.com/ddiaz-design)",
      "license": "CC-BY-NC-SA-4.0 (http://creativecommons.org/licenses/by-nc-sa/4.0/)",
      "source": "https://sketchfab.com/3d-models/2019-bmw-x5-xdrive30d-850fb32f984c4630969840fc61f44902",
      "title": "2019 BMW X5 xDrive30d"
    },
    "generator": "Sketchfab-16.74.0",
    "version": "2.0"
  },
  "bufferViews": [
    {
      "buffer": 0,
      "byteLength": 1280616,
      "name": "floatBufferViews",
      "target": 34963
    },
    {
      "buffer": 0,
      "byteLength": 96472,
      "byteOffset": 1280616,
      "byteStride": 8,
      "name": "floatBufferViews",
      "target": 34962
    },
    {
      "buffer": 0,
      "byteLength": 2415264,
      "byteOffset": 1377088,
      "byteStride": 12,
      "name": "floatBufferViews",
      "target": 34962
    }
  ],
  "buffers": [
    {
      "byteLength": 3792352,
      "uri": "scene.bin"
    }
  ],
  "extensionsUsed": [
    "KHR_materials_specular",
    "KHR_materials_transmission",
    "KHR_materials_clearcoat"
  ],
  "images": [
    {
      "uri": "textures/1_BMW_X5_M50i_lambert26SG1_baseColor.png"
    },
    {
      "uri": "textures/emblem_baseColor.png"
    },
    {
      "uri": "textures/1_BMW_X5_M50i_lambert28SG1_baseColor.png"
    },
    {
      "uri": "textures/1_BMW_X5_M50i_lambert21SG1_baseColor.png"
    },
    {
      "uri": "textures/1_BMW_X5_M50i_lambert27SG1_baseColor.png"
    },
    {
      "uri": "textures/1_BMW_X5_M50i_lambert25SG1_baseColor.png"
    },
    {
      "uri": "textures/Tire_baseColor.png"
    },
    {
      "uri": "textures/1_BMW_X5_M50i_lambert24SG1_baseColor.png"
    },
    {
      "uri": "textures/1_BMW_X5_M50i_lambert23SG1_baseColor.png"
    }
  ],
  "materials": [
    {
      "doubleSided": true,
      "name": "1Color_M08_2",
      "pbrMetallicRoughness": {
        "baseColorFactor": [
          0.001963,
          0.001963,
          0.001963,
          1.0
        ],
        "metallicFactor": 0.0,
        "roughnessFactor": 0.8007858698134872
      }
    },
    {
      "doubleSided": true,
      "extensions": {
        "KHR_materials_specular": {
          "specularColorFactor": [
            1.0,
            1.0,
            1.0
          ],
          "specularFactor": 0.24228645268252244
        }
      },
      "name": "1_BMW_X5_M50i_lambert26SG1",
      "pbrMetallicRoughness": {
        "baseColorTexture": {
          "index": 0
        },
        "metallicFactor": 0.6445733929855786,
        "roughnessFactor": 0.3520010727651741
      }
    },
    {
      "doubleSided": true,
      "extensions": {
        "KHR_materials_specular": {
          "specularColorFactor": [
            1.0,
            1.0,
            1.0
          ],
          "specularFactor": 0.6811449330131292
        }
      },
      "name": "emblem",
      "pbrMetallicRoughness": {
        "baseColorTexture": {
          "index": 1
        },
        "metallicFactor": 0.4921919762041179,
        "roughnessFactor": 0.17523862929867975
      }
    },
    {
      "doubleSided": true,
      "extensions": {
        "KHR_materials_specular": {
          "specularColorFactor": [
            1.0,
            1.0,
            1.0
          ],
          "specularFactor": 0.693335446355646
        }
      },
      "name": "1_BMW_X5_M50i_lambert10SG1",
      "pbrMetallicRoughness": {
        "baseColorFactor": [
          0.0,
          0.08112399140230465,
          0.40990987343505997,
          1.0
        ],
        "metallicFactor": 0.4556204361765674,
        "roughnessFactor": 0.24228645268252244
      }
    },
    {
      "doubleSided": true,
      "extensions": {
        "KHR_materials_specular": {
          "specularColorFactor": [
            1.0,
            1.0,
            1.0
          ],
          "specularFactor": 0.2118101693262303
        }
      },
      "name": "1_BMW_X5_M50i_lambert28SG1",
      "pbrMetallicRoughness": {
        "baseColorTexture": {
          "index": 2
        },
        "metallicFactor": 0.5409540295741854,
        "roughnessFactor": 0.4678109495190842
      }
    },
    {
      "doubleSided": true,
      "extensions": {
        "KHR_materials_specular": {
          "specularColorFactor": [
            1.0,
            1.0,
            1.0
          ],
          "specularFactor": 0.1630481159561629
        }
      },
      "name": "rim_chrome",
      "pbrMetallicRoughness": {
        "baseColorFactor": [
          0.7926760664667006,
          0.7926760664667006,
          0.7926760664667006,
          1.0
        ],
        "metallicFactor": 0.5226682595604101,
        "roughnessFactor": 0.38857261279272465
      }
    },
    {
      "doubleSided": true,
      "extensions": {
        "KHR_materials_specular": {
          "specularColorFactor": [
            1.0,
            1.0,
            1.0
          ],
          "specularFactor": 0.21790542599748874
        }
      },
      "name": "inner_plastic",
      "pbrMetallicRoughness": {
        "baseColorFactor": [
          0.000367,
          0.000367,
          0.000367,
          1.0
        ],
        "metallicFactor": 0.6019065962867696,
        "roughnessFactor": 0.5592397995879607
      }
    },
    {
      "doubleSided": true,
      "extensions": {
        "KHR_materials_specular": {
          "specularColorFactor": [
            1.0,
            1.0,
            1.0
          ],
          "specularFactor": 0.22400068266874718
        }
      },
      "name": "disk_2",
      "pbrMetallicRoughness": {
        "baseColorFactor": [
          0.06345267337957601,
          0.06345267337957601,
          0.06345267337957601,
          1.0
        ],
        "metallicFactor": 0.5958113396155111,
        "roughnessFactor": 0.4190488961490168
      }
    },
    {
      "doubleSided": true,
      "name": "caliper",
      "pbrMetallicRoughness": {
        "baseColorFactor": [
          0.0,
          0.060299568136653436,
          0.3863840971211095,
          1.0
        ],
        "metallicFactor": 0.5409540295741854,
        "roughnessFactor": 0.19921413018651277
      }
    },
    {
      "doubleSided": true,
      "extensions": {
        "KHR_materials_specular": {
          "specularColorFactor": [
            1.0,
            1.0,
            1.0
          ],
          "specularFactor": 0.6811449330131292
        }
      },
      "name": "1_BMW_X5_M50i_lambert21SG1",
      "pbrMetallicRoughness": {
        "baseColorTexture": {
          "index": 3
        },
        "metallicFactor": 0.5287635162316685,
        "roughnessFactor": 0.12038131925735392
      }
    },
    {
      "doubleSided": true,
      "extensions": {
        "KHR_materials_specular": {
          "specularColorFactor": [
            1.0,
            1.0,
            1.0
          ],
          "specularFactor": 0.16914337262742132
        }
      },
      "name": "blue_emblem",
      "pbrMetallicRoughness": {
        "baseColorFactor": [
          2.300000000000181e-05,
          0.14799799999999982,
          0.47043999999999997,
          1.0
        ],
        "metallicFactor": 0.4678109495190842,
        "roughnessFactor": 0.278857992710073
      }
    },
    {
      "doubleSided": true,
      "extensions": {
        "KHR_materials_specular": {
          "specularColorFactor": [
            1.0,
            1.0,
            1.0
          ],
          "specularFactor": 0.5348587729029269
        }
      },
      "name": "Red_Emblem",
      "pbrMetallicRoughness": {
        "baseColorFactor": [
          1.0,
          0.0,
          0.0,
          1.0
        ],
        "metallicFactor": 0.5409540295741854,
        "roughnessFactor": 0.1386670892711292
      }
    },
    {
      "alphaMode": "BLEND",
      "doubleSided": true,
      "extensions": {
        "KHR_materials_specular": {
          "specularColorFactor": [
            1.0,
            1.0,
            1.0
          ],
          "specularFactor": 1.0
        },
        "KHR_materials_transmission": {
          "transmissionFactor": 1.0
        }
      },
      "name": "red_glass",
      "pbrMetallicRoughness": {
        "baseColorFactor": [
          0.335664,
          0.0,
          0.0,
          0.25
        ],
        "metallicFactor": 0.0,
        "roughnessFactor": 0.0
      }
    },
    {
      "doubleSided": true,
      "extensions": {
        "KHR_materials_specular": {
          "specularColorFactor": [
            1.0,
            1.0,
            1.0
          ],
          "specularFactor": 0.29104850605258986
        }
      },
      "name": "d_blue_Emblem",
      "pbrMetallicRoughness": {
        "baseColorFactor": [
          2.299999999999968e-05,
          0.0019630000000000034,
          0.016988,
          1.0
        ],
        "metallicFactor": 0.5775255696017358,
        "roughnessFactor": 0.19921413018651277
      }
    },
    {
      "doubleSided": true,
      "extensions": {
        "KHR_materials_specular": {
          "specularColorFactor": [
            1.0,
            1.0,
            1.0
          ],
          "specularFactor": 0.4190488961490168
        }
      },
      "name": "rim_black",
      "pbrMetallicRoughness": {
        "baseColorFactor": [
          0.000367,
          0.000367,
          0.000367,
          1.0
        ],
        "metallicFactor": 0.27276273603881457,
        "roughnessFactor": 0.11428606258609549
      }
    },
    {
      "doubleSided": true,
      "emissiveFactor": [
        0.6128662499164927,
        0.6128662499164927,
        0.6128662499164927
      ],
      "name": "light_emiss",
      "pbrMetallicRoughness": {
        "baseColorFactor": [
          0.68002,
          0.68002,
          0.68002,
          1.0
        ],
        "metallicFactor": 0.0,
        "roughnessFactor": 0.7116212163694212
      }
    },
    {
      "doubleSided": true,
      "extensions": {
        "KHR_materials_specular": {
          "specularColorFactor": [
            1.0,
            1.0,
            1.0
          ],
          "specularFactor": 0.18742914264119662
        }
      },
      "name": "1_BMW_X5_M50i_lambert27SG1",
      "pbrMetallicRoughness": {
        "baseColorTexture": {
          "index": 4
        },
        "metallicFactor": 0.5470492862454438,
        "roughnessFactor": 0.4556204361765674
      }
    },
    {
      "doubleSided": true,
      "extensions": {
        "KHR_materials_specular": {
          "specularColorFactor": [
            1.0,
            1.0,
            1.0
          ],
          "specularFactor": 0.22400068266874718
        }
      },
      "name": "1_BMW_X5_M50i_lambert25SG1",
      "pbrMetallicRoughness": {
        "baseColorTexture": {
          "index": 5
        },
        "metallicFactor": 0.5775255696017358,
        "roughnessFactor": 0.48000146286160106
      }
    },
    {
      "doubleSided": true,
      "name": "chrome",
      "pbrMetallicRoughness": {
        "baseColorFactor": [
          0.4530459196144188,
          0.4530459196144188,
          0.4530459196144188,
          1.0
        ],
        "roughnessFactor": 0.07771452255854494
      }
    },
    {
      "doubleSided": true,
      "extensions": {
        "KHR_materials_specular": {
          "specularColorFactor": [
            1.0,
            1.0,
            1.0
          ],
          "specularFactor": 0.5775255696017358
        }
      },
      "name": "dark_metal",
      "pbrMetallicRoughness": {
        "baseColorFactor": [
          0.01499303941969177,
          0.01499303941969177,
          0.01499303941969177,
          1.0
        ],
        "metallicFactor": 0.5775255696017358,
        "roughnessFactor": 0.23009593934000558
      }
    },
    {
      "doubleSided": true,
      "extensions": {
        "KHR_materials_specular": {
          "specularColorFactor": [
            1.0,
            1.0,
            1.0
          ],
          "specularFactor": 0.18133388596993819
        }
      },
      "name": "disk_1",
      "pbrMetallicRoughness": {
        "baseColorFactor": [
          0.03656768630152015,
          0.03656768630152015,
          0.03656768630152015,
          1.0
        ],
        "metallicFactor": 0.6628591629993539,
        "roughnessFactor": 0.4434299228340505
      }
    },
    {
      "doubleSided": true,
      "extensions": {
        "KHR_materials_specular": {
          "specularColorFactor": [
            1.0,
            1.0,
            1.0
          ],
          "specularFactor": 0.24838170935378087
        }
      },
      "name": "metal_light",
      "pbrMetallicRoughness": {
        "baseColorFactor": [
          0.35260612693710275,
          0.35260612693710275,
          0.35260612693710275,
          1.0
        ],
        "metallicFactor": 0.7725737830820055,
        "roughnessFactor": 0.14476234594238763
      }
    },
    {
      "doubleSided": true,
      "extensions": {
        "KHR_materials_specular": {
          "specularColorFactor": [
            1.0,
            1.0,
            1.0
          ],
          "specularFactor": 0.41295363947775837
        }
      },
      "name": "light_mat",
      "pbrMetallicRoughness": {
        "baseColorFactor": [
          0.2096741292381083,
          0.21137270808207195,
          0.21377145338297793,
          1.0
        ],
        "metallicFactor": 0.6689544196706123,
        "roughnessFactor": 0.07771452255854494
      }
    },
    {
      "alphaMode": "BLEND",
      "doubleSided": true,
      "extensions": {
        "KHR_materials_specular": {
          "specularColorFactor": [
            1.0,
            1.0,
            1.0
          ],
          "specularFactor": 1.0
        },
        "KHR_materials_transmission": {
          "transmissionFactor": 1.0
        }
      },
      "name": "Glass_2",
      "pbrMetallicRoughness": {
        "baseColorFactor": [
          0.0,
          0.0,
          0.0,
          0.25
        ],
        "metallicFactor": 0.0,
        "roughnessFactor": 0.0
      }
    },
    {
      "doubleSided": true,
      "extensions": {
        "KHR_materials_specular": {
          "specularColorFactor": [
            1.0,
            1.0,
            1.0
          ],
          "specularFactor": 0.28495324938133143
        }
      },
      "name": "Tire",
      "pbrMetallicRoughness": {
        "baseColorTexture": {
          "index": 6
        },
        "metallicFactor": 0.6628591629993539,
        "roughnessFactor": 0.48000146286160106
      }
    },
    {
      "doubleSided": true,
      "extensions": {
        "KHR_materials_specular": {
          "specularColorFactor": [
            1.0,
            1.0,
            1.0
          ],
          "specularFactor": 0.5592397995879607
        }
      },
      "name": "1_BMW_X5_M50i_lambert9SG1",
      "pbrMetallicRoughness": {
        "baseColorFactor": [
          0.013314292935956682,
          0.013314292935956682,
          0.013314292935956682,
          1.0
        ],
        "metallicFactor": 0.821335836452073,
        "roughnessFactor": 0.24838170935378087
      }
    },
    {
      "doubleSided": true,
      "extensions": {
        "KHR_materials_specular": {
          "specularColorFactor": [
            1.0,
            1.0,
            1.0
          ],
          "specularFactor": 0.3276200460801404
        }
      },
      "name": "metal",
      "pbrMetallicRoughness": {
        "baseColorFactor": [
          0.5,
          0.5,
          0.5,
          1.0
        ],
        "metallicFactor": 0.6445733929855786,
        "roughnessFactor": 0.278857992710073
      }
    },
    {
      "doubleSided": true,
      "extensions": {
        "KHR_materials_specular": {
          "specularColorFactor": [
            1.0,
            1.0,
            1.0
          ],
          "specularFactor": 0.2605722226962977
        }
      },
      "name": "1_BMW_X5_M50i_lambert24SG1",
      "pbrMetallicRoughness": {
        "baseColorTexture": {
          "index": 7
        },
        "metallicFactor": 0.5104777462178932,
        "roughnessFactor": 0.44952517950530896
      }
    },
    {
      "doubleSided": true,
      "extensions": {
        "KHR_materials_specular": {
          "specularColorFactor": [
            1.0,
            1.0,
            1.0
          ],
          "specularFactor": 0.18133388596993819
        }
      },
      "name": "1_BMW_X5_M50i_lambert23SG1",
      "pbrMetallicRoughness": {
        "baseColorTexture": {
          "index": 8
        },
        "metallicFactor": 0.5165730028891516,
        "roughnessFactor": 0.4921919762041179
      }
    },
    {
      "doubleSided": true,
      "extensions": {
        "KHR_materials_specular": {
          "specularColorFactor": [
            1.0,
            1.0,
            1.0
          ],
          "specularFactor": 0.2544769660250393
        }
      },
      "name": "Roigh_Plastic",
      "pbrMetallicRoughness": {
        "baseColorFactor": [
          0.013314292935956682,
          0.013314292935956682,
          0.013314292935956682,
          1.0
        ],
        "metallicFactor": 0.5348587729029269,
        "roughnessFactor": 0.38857261279272465
      }
    },
    {
      "alphaMode": "BLEND",
      "doubleSided": true,
      "extensions": {
        "KHR_materials_clearcoat": {
          "clearcoatFactor": 1.0,
          "clearcoatRoughnessFactor": 0.0
        },
        "KHR_materials_specular": {
          "specularColorFactor": [
            1.0,
            1.0,
            1.0
          ],
          "specularFactor": 0.9920030232473088
        }
      },
      "name": "L_glass",
      "pbrMetallicRoughness": {
        "baseColorFactor": [
          0.1394289963550365,
          0.1394289963550365,
          0.1394289963550365,
          0.29104850605258986
        ],
        "metallicFactor": 0.5165730028891516,
        "roughnessFactor": 0.0
      }
    },
    {
      "alphaMode": "BLEND",
      "doubleSided": true,
      "extensions": {
        "KHR_materials_transmission": {
          "transmissionFactor": 1.0
        }
      },
      "name": "Glass",
      "pbrMetallicRoughness": {
        "baseColorFactor": [
          0.0,
          0.0,
          0.0,
          0.25
        ],
        "metallicFactor": 0.0,
        "roughnessFactor": 0.0
      }
    },
    {
      "alphaMode": "BLEND",
      "doubleSided": true,
      "extensions": {
        "KHR_materials_specular": {
          "specularColorFactor": [
            1.0,
            1.0,
            1.0
          ],
          "specularFactor": 0.7238117297119381
        },
        "KHR_materials_transmission": {
          "transmissionFactor": 1.0
        }
      },
      "name": "top_glass",
      "pbrMetallicRoughness": {
        "baseColorFactor": [
          0.0,
          0.0,
          0.0,
          0.25
        ],
        "metallicFactor": 0.0,
        "roughnessFactor": 0.0
      }
    },
    {
      "doubleSided": true,
      "name": "CarPaint",
      "pbrMetallicRoughness": {
        "baseColorFactor": [
          0.8464433773127846,
          0.8328392359441906,
          0.788249397488746,
          1.0
        ],
        "metallicFactor": 0.047238239202252806,
        "roughnessFactor": 0.18742914264119662
      }
    },
    {
      "doubleSided": true,
      "name": "Rough_Metal",
      "pbrMetallicRoughness": {
        "baseColorFactor": [
          0.79021,
          0.79021,
          0.79021,
          1.0
        ],
        "metallicFactor": 0.8579073764796235,
        "roughnessFactor": 0.3520010727651741
      }
    },
    {
      "doubleSided": true,
      "extensions": {
        "KHR_materials_specular": {
          "specularColorFactor": [
            1.0,
            1.0,
            1.0
          ],
          "specularFactor": 0.19961965598371345
        }
      },
      "name": "Chassis",
      "pbrMetallicRoughness": {
        "baseColorFactor": [
          0.000175,
          0.000175,
          0.000175,
          1.0
        ],
        "metallicFactor": 0.0,
        "roughnessFactor": 0.6262876229718033
      }
    }
  ],
  "meshes": [
    {
      "name": "_1:C_BR_1_C_BR_1__ColorM08_1__1:Color_M08_2_0",
      "primitives": [
        {
          "attributes": {
            "NORMAL": 1,
            "POSITION": 0
          },
          "indices": 2,
          "material": 0,
          "mode": 4
        }
      ]
    },
    {
      "name": "_1:G_2020BMWX5M50i_34_G_2020BMWX5M50i_34_2020BMWX5M50i_lambert26SG__1:_BMW_X5_M50i_lambert26SG1_0",
      "primitives": [
        {
          "attributes": {
            "NORMAL": 4,
            "POSITION": 3,
            "TEXCOORD_0": 5
          },
          "indices": 6,
          "material": 1,
          "mode": 4
        }
      ]
    },
    {
      "name": "_1:G_2020BMWX5M50i_19_G_2020BMWX5M50i_19_2020BMWX5M50i_lambert11SG_emblem_0",
      "primitives": [
        {
          "attributes": {
            "NORMAL": 8,
            "POSITION": 7,
            "TEXCOORD_0": 9
          },
          "indices": 10,
          "material": 2,
          "mode": 4
        }
      ]
    },
    {
      "name": "_1:G_2020BMWX5M50i_23_G_2020BMWX5M50i_23_2020BMWX5M50i_lambert10SG__1:_BMW_X5_M50i_lambert10SG1_0",
      "primitives": [
        {
          "attributes": {
            "NORMAL": 12,
            "POSITION": 11
          },
          "indices": 13,
          "material": 3,
          "mode": 4
        }
      ]
    },
    {
      "name": "_1:G_2020BMWX5M50i_38_G_2020BMWX5M50i_38_2020BMWX5M50i_lambert28SG__1:_BMW_X5_M50i_lambert28SG1_0",
      "primitives": [
        {
          "attributes": {
            "NORMAL": 15,
            "POSITION": 14,
            "TEXCOORD_0": 16
          },
          "indices": 17,
          "material": 4,
          "mode": 4
        }
      ]
    },
    {
      "name": "_1:G_2020BMWX5M50i_32_G_2020BMWX5M50i_32_2020BMWX5M50i_lambert15SG_rim_chrome_0",
      "primitives": [
        {
          "attributes": {
            "NORMAL": 19,
            "POSITION": 18
          },
          "indices": 20,
          "material": 5,
          "mode": 4
        }
      ]
    },
    {
      "name": "_1:G_2020BMWX5M50i_40_G_2020BMWX5M50i_40_2020BMWX5M50i_lambert29SG_inner_plastic_0",
      "primitives": [
        {
          "attributes": {
            "NORMAL": 22,
            "POSITION": 21
          },
          "indices": 23,
          "material": 6,
          "mode": 4
        }
      ]
    },
    {
      "name": "_1:G_2020BMWX5M50i_31_G_2020BMWX5M50i_31_2020BMWX5M50i_lambert17SG_disk_2_0",
      "primitives": [
        {
          "attributes": {
            "NORMAL": 25,
            "POSITION": 24
          },
          "indices": 26,
          "material": 7,
          "mode": 4
        }
      ]
    },
    {
      "name": "_1:G_2020BMWX5M50i_29_G_2020BMWX5M50i_29_2020BMWX5M50i_lambert18SG_caliper_0",
      "primitives": [
        {
          "attributes": {
            "NORMAL": 28,
            "POSITION": 27
          },
          "indices": 29,
          "material": 8,
          "mode": 4
        }
      ]
    },
    {
      "name": "_1:G_2020BMWX5M50i_25_G_2020BMWX5M50i_25_2020BMWX5M50i_lambert21SG__1:_BMW_X5_M50i_lambert21SG1_0",
      "primitives": [
        {
          "attributes": {
            "NORMAL": 31,
            "POSITION": 30,
            "TEXCOORD_0": 32
          },
          "indices": 33,
          "material": 9,
          "mode": 4
        }
      ]
    },
    {
      "name": "_1:G_2020BMWX5M50i_17_G_2020BMWX5M50i_17_2020BMWX5M50i_lambert30SG_blue_emblem_0",
      "primitives": [
        {
          "attributes": {
            "NORMAL": 35,
            "POSITION": 34
          },
          "indices": 36,
          "material": 10,
          "mode": 4
        }
      ]
    },
    {
      "name": "_1:G_2020BMWX5M50i_15_G_2020BMWX5M50i_15_2020BMWX5M50i_lambert32SG_Red_Emblem_0",
      "primitives": [
        {
          "attributes": {
            "NORMAL": 38,
            "POSITION": 37
          },
          "indices": 39,
          "material": 11,
          "mode": 4
        }
      ]
    },
    {
      "name": "_1:G_2020BMWX5M50i_18_G_2020BMWX5M50i_18_2020BMWX5M50i_lambert19SG_red_glass_0",
      "primitives": [
        {
          "attributes": {
            "NORMAL": 41,
            "POSITION": 40
          },
          "indices": 42,
          "material": 12,
          "mode": 4
        }
      ]
    },
    {
      "name": "_1:G_2020BMWX5M50i_16_G_2020BMWX5M50i_16_2020BMWX5M50i_lambert31SG_d_blue_Emblem_0",
      "primitives": [
        {
          "attributes": {
            "NORMAL": 44,
            "POSITION": 43
          },
          "indices": 45,
          "material": 13,
          "mode": 4
        }
      ]
    },
    {
      "name": "_1:G_2020BMWX5M50i_27_G_2020BMWX5M50i_27_2020BMWX5M50i_lambert14SG_rim_black_0",
      "primitives": [
        {
          "attributes": {
            "NORMAL": 47,
            "POSITION": 46
          },
          "indices": 48,
          "material": 14,
          "mode": 4
        }
      ]
    },
    {
      "name": "_1:G_2020BMWX5M50i_26_G_2020BMWX5M50i_26_2020BMWX5M50i_lambert22SG_light_emiss_0",
      "primitives": [
        {
          "attributes": {
            "NORMAL": 50,
            "POSITION": 49
          },
          "indices": 51,
          "material": 15,
          "mode": 4
        }
      ]
    },
    {
      "name": "_1:G_2020BMWX5M50i_37_G_2020BMWX5M50i_37_2020BMWX5M50i_lambert27SG__1:_BMW_X5_M50i_lambert27SG1_0",
      "primitives": [
        {
          "attributes": {
            "NORMAL": 53,
            "POSITION": 52,
            "TEXCOORD_0": 54
          },
          "indices": 55,
          "material": 16,
          "mode": 4
        }
      ]
    },
    {
      "name": "_1:G_2020BMWX5M50i_36_G_2020BMWX5M50i_36_2020BMWX5M50i_lambert25SG__1:_BMW_X5_M50i_lambert25SG1_0",
      "primitives": [
        {
          "attributes": {
            "NORMAL": 57,
            "POSITION": 56,
            "TEXCOORD_0": 58
          },
          "indices": 59,
          "material": 17,
          "mode": 4
        }
      ]
    },
    {
      "name": "_1:G_2020BMWX5M50i_33_G_2020BMWX5M50i_33_2020BMWX5M50i_lambert20SG_chrome_0",
      "primitives": [
        {
          "attributes": {
            "NORMAL": 61,
            "POSITION": 60
          },
          "indices": 62,
          "material": 18,
          "mode": 4
        }
      ]
    },
    {
      "name": "_1:G_2020BMWX5M50i_33_G_2020BMWX5M50i_33_2020BMWX5M50i_lambert20SG_dark_metal_0",
      "primitives": [
        {
          "attributes": {
            "NORMAL": 64,
            "POSITION": 63
          },
          "indices": 65,
          "material": 19,
          "mode": 4
        }
      ]
    },
    {
      "name": "_1:G_2020BMWX5M50i_22_G_2020BMWX5M50i_22_2020BMWX5M50i_lambert7SG_light_emiss_0",
      "primitives": [
        {
          "attributes": {
            "NORMAL": 67,
            "POSITION": 66
          },
          "indices": 68,
          "material": 15,
          "mode": 4
        }
      ]
    },
    {
      "name": "_1:G_2020BMWX5M50i_30_G_2020BMWX5M50i_30_2020BMWX5M50i_lambert16SG_disk_1_0",
      "primitives": [
        {
          "attributes": {
            "NORMAL": 70,
            "POSITION": 69
          },
          "indices": 71,
          "material": 20,
          "mode": 4
        }
      ]
    },
    {
      "name": "_1:G_2020BMWX5M50i_21_G_2020BMWX5M50i_21_2020BMWX5M50i_lambert8SG_metal_light_0",
      "primitives": [
        {
          "attributes": {
            "NORMAL": 73,
            "POSITION": 72
          },
          "indices": 74,
          "material": 21,
          "mode": 4
        }
      ]
    },
    {
      "name": "_1:G_2020BMWX5M50i_21_G_2020BMWX5M50i_21_2020BMWX5M50i_lambert8SG_light_mat_0",
      "primitives": [
        {
          "attributes": {
            "NORMAL": 76,
            "POSITION": 75
          },
          "indices": 77,
          "material": 22,
          "mode": 4
        }
      ]
    },
    {
      "name": "_1:G_2020BMWX5M50i_24_G_2020BMWX5M50i_24_2020BMWX5M50i_lambert19SG_Glass_2_0",
      "primitives": [
        {
          "attributes": {
            "NORMAL": 79,
            "POSITION": 78
          },
          "indices": 80,
          "material": 23,
          "mode": 4
        }
      ]
    },
    {
      "name": "_1:G_2020BMWX5M50i_28_G_2020BMWX5M50i_28_2020BMWX5M50i_lambert2SG_Tire_0",
      "primitives": [
        {
          "attributes": {
            "NORMAL": 82,
            "POSITION": 81,
            "TEXCOORD_0": 83
          },
          "indices": 84,
          "material": 24,
          "mode": 4
        }
      ]
    },
    {
      "name": "_1:G_2020BMWX5M50i_20_G_2020BMWX5M50i_20_2020BMWX5M50i_lambert9SG__1:_BMW_X5_M50i_lambert9SG1_0",
      "primitives": [
        {
          "attributes": {
            "NORMAL": 86,
            "POSITION": 85
          },
          "indices": 87,
          "material": 25,
          "mode": 4
        }
      ]
    },
    {
      "name": "_1:G_2020BMWX5M50i_20_G_2020BMWX5M50i_20_2020BMWX5M50i_lambert9SG_metal_0",
      "primitives": [
        {
          "attributes": {
            "NORMAL": 89,
            "POSITION": 88
          },
          "indices": 90,
          "material": 26,
          "mode": 4
        }
      ]
    },
    {
      "name": "_1:G_2020BMWX5M50i_39_G_2020BMWX5M50i_39_2020BMWX5M50i_lambert24SG__1:_BMW_X5_M50i_lambert24SG1_0",
      "primitives": [
        {
          "attributes": {
            "NORMAL": 92,
            "POSITION": 91,
            "TEXCOORD_0": 93
          },
          "indices": 94,
          "material": 27,
          "mode": 4
        }
      ]
    },
    {
      "name": "_1:G_2020BMWX5M50i_35_G_2020BMWX5M50i_35_2020BMWX5M50i_lambert23SG__1:_BMW_X5_M50i_lambert23SG1_0",
      "primitives": [
        {
          "attributes": {
            "NORMAL": 96,
            "POSITION": 95,
            "TEXCOORD_0": 97
          },
          "indices": 98,
          "material": 28,
          "mode": 4
        }
      ]
    },
    {
      "name": "_1:G_2020BMWX5M50i_4_G_2020BMWX5M50i_4_2020BMWX5M50i_lambert3SG_Roigh_Plastic_0",
      "primitives": [
        {
          "attributes": {
            "NORMAL": 100,
            "POSITION": 99
          },
          "indices": 101,
          "material": 29,
          "mode": 4
        }
      ]
    },
    {
      "name": "_1:G_2020BMWX5M50i_11_G_2020BMWX5M50i_11_2020BMWX5M50i_lambert6SG_Glass_2_0",
      "primitives": [
        {
          "attributes": {
            "NORMAL": 103,
            "POSITION": 102
          },
          "indices": 104,
          "material": 23,
          "mode": 4
        }
      ]
    },
    {
      "name": "_1:G_2020BMWX5M50i_11_G_2020BMWX5M50i_11_2020BMWX5M50i_lambert6SG_L_glass_0",
      "primitives": [
        {
          "attributes": {
            "NORMAL": 106,
            "POSITION": 105
          },
          "indices": 107,
          "material": 30,
          "mode": 4
        }
      ]
    },
    {
      "name": "_1:G_2020BMWX5M50i_1_G_2020BMWX5M50i_1_2020BMWX5M50i_lambert5SG_dark_metal_0",
      "primitives": [
        {
          "attributes": {
            "NORMAL": 109,
            "POSITION": 108
          },
          "indices": 110,
          "material": 19,
          "mode": 4
        }
      ]
    },
    {
      "name": "_1:G_2020BMWX5M50i_10_G_2020BMWX5M50i_10_2020BMWX5M50i_lambert13SG_Glass_0",
      "primitives": [
        {
          "attributes": {
            "NORMAL": 112,
            "POSITION": 111
          },
          "indices": 113,
          "material": 31,
          "mode": 4
        }
      ]
    },
    {
      "name": "_1:G_2020BMWX5M50i_3_G_2020BMWX5M50i_3_2020BMWX5M50i_lambert29SG_inner_plastic_0",
      "primitives": [
        {
          "attributes": {
            "NORMAL": 115,
            "POSITION": 114
          },
          "indices": 116,
          "material": 6,
          "mode": 4
        }
      ]
    },
    {
      "name": "_1:G_2020BMWX5M50i_14_G_2020BMWX5M50i_14_2020BMWX5M50i_lambert8SG_metal_light_0",
      "primitives": [
        {
          "attributes": {
            "NORMAL": 118,
            "POSITION": 117
          },
          "indices": 119,
          "material": 21,
          "mode": 4
        }
      ]
    },
    {
      "name": "_1:G_2020BMWX5M50i_9_G_2020BMWX5M50i_9_2020BMWX5M50i_lambert3SG_top_glass_0",
      "primitives": [
        {
          "attributes": {
            "NORMAL": 121,
            "POSITION": 120
          },
          "indices": 122,
          "material": 32,
          "mode": 4
        }
      ]
    },
    {
      "name": "_1:G_2020BMWX5M50i_13_G_2020BMWX5M50i_13_2020BMWX5M50i_lambert20SG_chrome_0",
      "primitives": [
        {
          "attributes": {
            "NORMAL": 124,
            "POSITION": 123
          },
          "indices": 125,
          "material": 18,
          "mode": 4
        }
      ]
    },
    {
      "name": "_1:G_2020BMWX5M50i_12_G_2020BMWX5M50i_12_2020BMWX5M50i_lambert20SG_chrome_0",
      "primitives": [
        {
          "attributes": {
            "NORMAL": 127,
            "POSITION": 126
          },
          "indices": 128,
          "material": 18,
          "mode": 4
        }
      ]
    },
    {
      "name": "_1:G_2020BMWX5M50i_2_G_2020BMWX5M50i_2_CarPaint_Flakes_CobaltBlue_1_CarPaint_0",
      "primitives": [
        {
          "attributes": {
            "NORMAL": 130,
            "POSITION": 129
          },
          "indices": 131,
          "material": 33,
          "mode": 4
        }
      ]
    },
    {
      "name": "_1:G_2020BMWX5M50i_2_G_2020BMWX5M50i_2_CarPaint_Flakes_CobaltBlue_1_metal_0",
      "primitives": [
        {
          "attributes": {
            "NORMAL": 133,
            "POSITION": 132
          },
          "indices": 134,
          "material": 26,
          "mode": 4
        }
      ]
    },
    {
      "name": "_1:G_2020BMWX5M50i_8_G_2020BMWX5M50i_8_2020BMWX5M50i_lambert5SG_dark_metal_0",
      "primitives": [
        {
          "attributes": {
            "NORMAL": 136,
            "POSITION": 135
          },
          "indices": 137,
          "material": 19,
          "mode": 4
        }
      ]
    },
    {
      "name": "_1:G_2020BMWX5M50i_7_G_2020BMWX5M50i_7_2020BMWX5M50i_lambert12SG_Rough_Metal_0",
      "primitives": [
        {
          "attributes": {
            "NORMAL": 139,
            "POSITION": 138
          },
          "indices": 140,
          "material": 34,
          "mode": 4
        }
      ]
    },
    {
      "name": "_1:G_2020BMWX5M50i_6_G_2020BMWX5M50i_6_2020BMWX5M50i_lambert20SG_chrome_0",
      "primitives": [
        {
          "attributes": {
            "NORMAL": 142,
            "POSITION": 141
          },
          "indices": 143,
          "material": 18,
          "mode": 4
        }
      ]
    },
    {
      "name": "_1:G_2020BMWX5M50i_5_G_2020BMWX5M50i_5_2020BMWX5M50i_lambert5SG_dark_metal_0",
      "primitives": [
        {
          "attributes": {
            "NORMAL": 145,
            "POSITION": 144
          },
          "indices": 146,
          "material": 19,
          "mode": 4
        }
      ]
    },
    {
      "name": "_1:G_2020BMWX5M50i_0_G_2020BMWX5M50i_0_2020BMWX5M50i_lambert4SG_Chassis_0",
      "primitives": [
        {
          "attributes": {
            "NORMAL": 148,
            "POSITION": 147
          },
          "indices": 149,
          "material": 35,
          "mode": 4
        }
      ]
    }
  ],
  "nodes": [
    {
      "children": [
        1
      ],
      "matrix": [
        1.0,
        0.0,
        0.0,
        0.0,
        0.0,
        2.220446049250313e-16,
        -1.0,
        0.0,
        0.0,
        1.0,
        2.220446049250313e-16,
        0.0,
        0.0,
        0.0,
        0.0,
        1.0
      ],
      "name": "Sketchfab_model"
    },
    {
      "children": [
        2
      ],
      "matrix": [
        0.009999999776482582,
        0.0,
        0.0,
        0.0,
        0.0,
        0.0,
        0.009999999776482582,
        0.0,
        0.0,
        -0.009999999776482582,
        0.0,
        0.0,
        0.0,
        0.0,
        0.0,
        1.0
      ],
      "name": "FINAL_MODEL_19.fbx"
    },
    {
      "children": [
        3
      ],
      "name": "RootNode"
    },
    {
      "children": [
        4,
        6,
        8,
        10,
        12,
        14,
        16,
        18,
        20,
        22,
        24,
        26,
        28,
        30,
        32,
        34,
        36,
        38,
        40,
        43,
        45,
        47,
        50,
        52,
        54,
        57,
        59,
        61,
        63,
        66,
        68,
        70,
        72,
        74,
        76,
        78,
        80,
        83,
        85,
        87,
        89,
        91
      ],
      "matrix": [
        1.0,
        0.0,
        0.0,
        0.0,
        0.0,
        1.0,
        0.0,
        0.0,
        0.0,
        0.0,
        1.0,
        0.0,
        -1.2427915334701538,
        0.0,
        2.7387266159057617,
        1.0
      ],
      "name": "group1"
    },
    {
      "children": [
        5
      ],
      "name": "_1:C_BR_1_C_BR_1__ColorM08_1"
    },
    {
      "mesh": 0,
      "name": "_1:C_BR_1_C_BR_1__ColorM08_1__1:Color_M08_2_0"
    },
    {
      "children": [
        7
      ],
      "name": "_1:G_2020BMWX5M50i_34_G_2020BMWX5M50i_34_2020BMWX5M50i_lambert26SG"
    },
    {
      "mesh": 1,
      "name": "_1:G_2020BMWX5M50i_34_G_2020BMWX5M50i_34_2020BMWX5M50i_lambert26SG__1:_BMW_X5_M50i_lambert26SG1_0"
    },
    {
      "children": [
        9
      ],
      "name": "_1:G_2020BMWX5M50i_19_G_2020BMWX5M50i_19_2020BMWX5M50i_lambert11SG"
    },
    {
      "mesh": 2,
      "name": "_1:G_2020BMWX5M50i_19_G_2020BMWX5M50i_19_2020BMWX5M50i_lambert11SG_emblem_0"
    },
    {
      "children": [
        11
      ],
      "name": "_1:G_2020BMWX5M50i_23_G_2020BMWX5M50i_23_2020BMWX5M50i_lambert10SG"
    },
    {
      "mesh": 3,
      "name": "_1:G_2020BMWX5M50i_23_G_2020BMWX5M50i_23_2020BMWX5M50i_lambert10SG__1:_BMW_X5_M50i_lambert10SG1_0"
    },
    {
      "children": [
        13
      ],
      "name": "_1:G_2020BMWX5M50i_38_G_2020BMWX5M50i_38_2020BMWX5M50i_lambert28SG"
    },
    {
      "mesh": 4,
      "name": "_1:G_2020BMWX5M50i_38_G_2020BMWX5M50i_38_2020BMWX5M50i_lambert28SG__1:_BMW_X5_M50i_lambert28SG1_0"
    },
    {
      "children": [
        15
      ],
      "name": "_1:G_2020BMWX5M50i_32_G_2020BMWX5M50i_32_2020BMWX5M50i_lambert15SG"
    },
    {
      "mesh": 5,
      "name": "_1:G_2020BMWX5M50i_32_G_2020BMWX5M50i_32_2020BMWX5M50i_lambert15SG_rim_chrome_0"
    },
    {
      "children": [
        17
      ],
      "name": "_1:G_2020BMWX5M50i_40_G_2020BMWX5M50i_40_2020BMWX5M50i_lambert29SG"
    },
    {
      "mesh": 6,
      "name": "_1:G_2020BMWX5M50i_40_G_2020BMWX5M50i_40_2020BMWX5M50i_lambert29SG_inner_plastic_0"
    },
    {
      "children": [
        19
      ],
      "name": "_1:G_2020BMWX5M50i_31_G_2020BMWX5M50i_31_2020BMWX5M50i_lambert17SG"
    },
    {
      "mesh": 7,
      "name": "_1:G_2020BMWX5M50i_31_G_2020BMWX5M50i_31_2020BMWX5M50i_lambert17SG_disk_2_0"
    },
    {
      "children": [
        21
      ],
      "name": "_1:G_2020BMWX5M50i_29_G_2020BMWX5M50i_29_2020BMWX5M50i_lambert18SG"
    },
    {
      "mesh": 8,
      "name": "_1:G_2020BMWX5M50i_29_G_2020BMWX5M50i_29_2020BMWX5M50i_lambert18SG_caliper_0"
    },
    {
      "children": [
        23
      ],
      "name": "_1:G_2020BMWX5M50i_25_G_2020BMWX5M50i_25_2020BMWX5M50i_lambert21SG"
    },
    {
      "mesh": 9,
      "name": "_1:G_2020BMWX5M50i_25_G_2020BMWX5M50i_25_2020BMWX5M50i_lambert21SG__1:_BMW_X5_M50i_lambert21SG1_0"
    },
    {
      "children": [
        25
      ],
      "name": "_1:G_2020BMWX5M50i_17_G_2020BMWX5M50i_17_2020BMWX5M50i_lambert30SG"
    },
    {
      "mesh": 10,
      "name": "_1:G_2020BMWX5M50i_17_G_2020BMWX5M50i_17_2020BMWX5M50i_lambert30SG_blue_emblem_0"
    },
    {
      "children": [
        27
      ],
      "name": "_1:G_2020BMWX5M50i_15_G_2020BMWX5M50i_15_2020BMWX5M50i_lambert32SG"
    },
    {
      "mesh": 11,
      "name": "_1:G_2020BMWX5M50i_15_G_2020BMWX5M50i_15_2020BMWX5M50i_lambert32SG_Red_Emblem_0"
    },
    {
      "children": [
        29
      ],
      "name": "_1:G_2020BMWX5M50i_18_G_2020BMWX5M50i_18_2020BMWX5M50i_lambert19SG"
    },
    {
      "mesh": 12,
      "name": "_1:G_2020BMWX5M50i_18_G_2020BMWX5M50i_18_2020BMWX5M50i_lambert19SG_red_glass_0"
    },
    {
      "children": [
        31
      ],
      "name": "_1:G_2020BMWX5M50i_16_G_2020BMWX5M50i_16_2020BMWX5M50i_lambert31SG"
    },
    {
      "mesh": 13,
      "name": "_1:G_2020BMWX5M50i_16_G_2020BMWX5M50i_16_2020BMWX5M50i_lambert31SG_d_blue_Emblem_0"
    },
    {
      "children": [
        33
      ],
      "name": "_1:G_2020BMWX5M50i_27_G_2020BMWX5M50i_27_2020BMWX5M50i_lambert14SG"
    },
    {
      "mesh": 14,
      "name": "_1:G_2020BMWX5M50i_27_G_2020BMWX5M50i_27_2020BMWX5M50i_lambert14SG_rim_black_0"
    },
    {
      "children": [
        35
      ],
      "name": "_1:G_2020BMWX5M50i_26_G_2020BMWX5M50i_26_2020BMWX5M50i_lambert22SG"
    },
    {
      "mesh": 15,
      "name": "_1:G_2020BMWX5M50i_26_G_2020BMWX5M50i_26_2020BMWX5M50i_lambert22SG_light_emiss_0"
    },
    {
      "children": [
        37
      ],
      "name": "_1:G_2020BMWX5M50i_37_G_2020BMWX5M50i_37_2020BMWX5M50i_lambert27SG"
    },
    {
      "mesh": 16,
      "name": "_1:G_2020BMWX5M50i_37_G_2020BMWX5M50i_37_2020BMWX5M50i_lambert27SG__1:_BMW_X5_M50i_lambert27SG1_0"
    },
    {
      "children": [
        39
      ],
      "name": "_1:G_2020BMWX5M50i_36_G_2020BMWX5M50i_36_2020BMWX5M50i_lambert25SG"
    },
    {
      "mesh": 17,
      "name": "_1:G_2020BMWX5M50i_36_G_2020BMWX5M50i_36_2020BMWX5M50i_lambert25SG__1:_BMW_X5_M50i_lambert25SG1_0"
    },
    {
      "children": [
        41,
        42
      ],
      "name": "_1:G_2020BMWX5M50i_33_G_2020BMWX5M50i_33_2020BMWX5M50i_lambert20SG"
    },
    {
      "mesh": 18,
      "name": "_1:G_2020BMWX5M50i_33_G_2020BMWX5M50i_33_2020BMWX5M50i_lambert20SG_chrome_0"
    },
    {
      "mesh": 19,
      "name": "_1:G_2020BMWX5M50i_33_G_2020BMWX5M50i_33_2020BMWX5M50i_lambert20SG_dark_metal_0"
    },
    {
      "children": [
        44
      ],
      "name": "_1:G_2020BMWX5M50i_22_G_2020BMWX5M50i_22_2020BMWX5M50i_lambert7SG"
    },
    {
      "mesh": 20,
      "name": "_1:G_2020BMWX5M50i_22_G_2020BMWX5M50i_22_2020BMWX5M50i_lambert7SG_light_emiss_0"
    },
    {
      "children": [
        46
      ],
      "name": "_1:G_2020BMWX5M50i_30_G_2020BMWX5M50i_30_2020BMWX5M50i_lambert16SG"
    },
    {
      "mesh": 21,
      "name": "_1:G_2020BMWX5M50i_30_G_2020BMWX5M50i_30_2020BMWX5M50i_lambert16SG_disk_1_0"
    },
    {
      "children": [
        48,
        49
      ],
      "name": "_1:G_2020BMWX5M50i_21_G_2020BMWX5M50i_21_2020BMWX5M50i_lambert8SG"
    },
    {
      "mesh": 22,
      "name": "_1:G_2020BMWX5M50i_21_G_2020BMWX5M50i_21_2020BMWX5M50i_lambert8SG_metal_light_0"
    },
    {
      "mesh": 23,
      "name": "_1:G_2020BMWX5M50i_21_G_2020BMWX5M50i_21_2020BMWX5M50i_lambert8SG_light_mat_0"
    },
    {
      "children": [
        51
      ],
      "name": "_1:G_2020BMWX5M50i_24_G_2020BMWX5M50i_24_2020BMWX5M50i_lambert19SG"
    },
    {
      "mesh": 24,
      "name": "_1:G_2020BMWX5M50i_24_G_2020BMWX5M50i_24_2020BMWX5M50i_lambert19SG_Glass_2_0"
    },
    {
      "children": [
        53
      ],
      "name": "_1:G_2020BMWX5M50i_28_G_2020BMWX5M50i_28_2020BMWX5M50i_lambert2SG"
    },
    {
      "mesh": 25,
      "name": "_1:G_2020BMWX5M50i_28_G_2020BMWX5M50i_28_2020BMWX5M50i_lambert2SG_Tire_0"
    },
    {
      "children": [
        55,
        56
      ],
      "name": "_1:G_2020BMWX5M50i_20_G_2020BMWX5M50i_20_2020BMWX5M50i_lambert9SG"
    },
    {
      "mesh": 26,
      "name": "_1:G_2020BMWX5M50i_20_G_2020BMWX5M50i_20_2020BMWX5M50i_lambert9SG__1:_BMW_X5_M50i_lambert9SG1_0"
    },
    {
      "mesh": 27,
      "name": "_1:G_2020BMWX5M50i_20_G_2020BMWX5M50i_20_2020BMWX5M50i_lambert9SG_metal_0"
    },
    {
      "children": [
        58
      ],
      "name": "_1:G_2020BMWX5M50i_39_G_2020BMWX5M50i_39_2020BMWX5M50i_lambert24SG"
    },
    {
      "mesh": 28,
      "name": "_1:G_2020BMWX5M50i_39_G_2020BMWX5M50i_39_2020BMWX5M50i_lambert24SG__1:_BMW_X5_M50i_lambert24SG1_0"
    },
    {
      "children": [
        60
      ],
      "name": "_1:G_2020BMWX5M50i_35_G_2020BMWX5M50i_35_2020BMWX5M50i_lambert23SG"
    },
    {
      "mesh": 29,
      "name": "_1:G_2020BMWX5M50i_35_G_2020BMWX5M50i_35_2020BMWX5M50i_lambert23SG__1:_BMW_X5_M50i_lambert23SG1_0"
    },
    {
      "children": [
        62
      ],
      "name": "_1:G_2020BMWX5M50i_4_G_2020BMWX5M50i_4_2020BMWX5M50i_lambert3SG"
    },
    {
      "mesh": 30,
      "name": "_1:G_2020BMWX5M50i_4_G_2020BMWX5M50i_4_2020BMWX5M50i_lambert3SG_Roigh_Plastic_0"
    },
    {
      "children": [
        64,
        65
      ],
      "name": "_1:G_2020BMWX5M50i_11_G_2020BMWX5M50i_11_2020BMWX5M50i_lambert6SG"
    },
    {
      "mesh": 31,
      "name": "_1:G_2020BMWX5M50i_11_G_2020BMWX5M50i_11_2020BMWX5M50i_lambert6SG_Glass_2_0"
    },
    {
      "mesh": 32,
      "name": "_1:G_2020BMWX5M50i_11_G_2020BMWX5M50i_11_2020BMWX5M50i_lambert6SG_L_glass_0"
    },
    {
      "children": [
        67
      ],
      "name": "_1:G_2020BMWX5M50i_1_G_2020BMWX5M50i_1_2020BMWX5M50i_lambert5SG"
    },
    {
      "mesh": 33,
      "name": "_1:G_2020BMWX5M50i_1_G_2020BMWX5M50i_1_2020BMWX5M50i_lambert5SG_dark_metal_0"
    },
    {
      "children": [
        69
      ],
      "name": "_1:G_2020BMWX5M50i_10_G_2020BMWX5M50i_10_2020BMWX5M50i_lambert13SG"
    },
    {
      "mesh": 34,
      "name": "_1:G_2020BMWX5M50i_10_G_2020BMWX5M50i_10_2020BMWX5M50i_lambert13SG_Glass_0"
    },
    {
      "children": [
        71
      ],
      "name": "_1:G_2020BMWX5M50i_3_G_2020BMWX5M50i_3_2020BMWX5M50i_lambert29SG"
    },
    {
      "mesh": 35,
      "name": "_1:G_2020BMWX5M50i_3_G_2020BMWX5M50i_3_2020BMWX5M50i_lambert29SG_inner_plastic_0"
    },
    {
      "children": [
        73
      ],
      "name": "_1:G_2020BMWX5M50i_14_G_2020BMWX5M50i_14_2020BMWX5M50i_lambert8SG"
    },
    {
      "mesh": 36,
      "name": "_1:G_2020BMWX5M50i_14_G_2020BMWX5M50i_14_2020BMWX5M50i_lambert8SG_metal_light_0"
    },
    {
      "children": [
        75
      ],
      "name": "_1:G_2020BMWX5M50i_9_G_2020BMWX5M50i_9_2020BMWX5M50i_lambert3SG"
    },
    {
      "mesh": 37,
      "name": "_1:G_2020BMWX5M50i_9_G_2020BMWX5M50i_9_2020BMWX5M50i_lambert3SG_top_glass_0"
    },
    {
      "children": [
        77
      ],
      "name": "_1:G_2020BMWX5M50i_13_G_2020BMWX5M50i_13_2020BMWX5M50i_lambert20SG"
    },
    {
      "mesh": 38,
      "name": "_1:G_2020BMWX5M50i_13_G_2020BMWX5M50i_13_2020BMWX5M50i_lambert20SG_chrome_0"
    },
    {
      "children": [
        79
      ],
      "name": "_1:G_2020BMWX5M50i_12_G_2020BMWX5M50i_12_2020BMWX5M50i_lambert20SG"
    },
    {
      "mesh": 39,
      "name": "_1:G_2020BMWX5M50i_12_G_2020BMWX5M50i_12_2020BMWX5M50i_lambert20SG_chrome_0"
    },
    {
      "children": [
        81,
        82
      ],
      "name": "_1:G_2020BMWX5M50i_2_G_2020BMWX5M50i_2_CarPaint_Flakes_CobaltBlue_1"
    },
    {
      "mesh": 40,
      "name": "_1:G_2020BMWX5M50i_2_G_2020BMWX5M50i_2_CarPaint_Flakes_CobaltBlue_1_CarPaint_0"
    },
    {
      "mesh": 41,
      "name": "_1:G_2020BMWX5M50i_2_G_2020BMWX5M50i_2_CarPaint_Flakes_CobaltBlue_1_metal_0"
    },
    {
      "children": [
        84
      ],
      "name": "_1:G_2020BMWX5M50i_8_G_2020BMWX5M50i_8_2020BMWX5M50i_lambert5SG"
    },
    {
      "mesh": 42,
      "name": "_1:G_2020BMWX5M50i_8_G_2020BMWX5M50i_8_2020BMWX5M50i_lambert5SG_dark_metal_0"
    },
    {
      "children": [
        86
      ],
      "name": "_1:G_2020BMWX5M50i_7_G_2020BMWX5M50i_7_2020BMWX5M50i_lambert12SG"
    },
    {
      "mesh": 43,
      "name": "_1:G_2020BMWX5M50i_7_G_2020BMWX5M50i_7_2020BMWX5M50i_lambert12SG_Rough_Metal_0"
    },
    {
      "children": [
        88
      ],
      "name": "_1:G_2020BMWX5M50i_6_G_2020BMWX5M50i_6_2020BMWX5M50i_lambert20SG"
    },
    {
      "mesh": 44,
      "name": "_1:G_2020BMWX5M50i_6_G_2020BMWX5M50i_6_2020BMWX5M50i_lambert20SG_chrome_0"
    },
    {
      "children": [
        90
      ],
      "name": "_1:G_2020BMWX5M50i_5_G_2020BMWX5M50i_5_2020BMWX5M50i_lambert5SG"
    },
    {
      "mesh": 45,
      "name": "_1:G_2020BMWX5M50i_5_G_2020BMWX5M50i_5_2020BMWX5M50i_lambert5SG_dark_metal_0"
    },
    {
      "children": [
        92
      ],
      "name": "_1:G_2020BMWX5M50i_0_G_2020BMWX5M50i_0_2020BMWX5M50i_lambert4SG"
    },
    {
      "mesh": 46,
      "name": "_1:G_2020BMWX5M50i_0_G_2020BMWX5M50i_0_2020BMWX5M50i_lambert4SG_Chassis_0"
    }
  ],
  "samplers": [
    {
      "magFilter": 9729,
      "minFilter": 9987,
      "wrapS": 10497,
      "wrapT": 10497
    }
  ],
  "scene": 0,
  "scenes": [
    {
      "name": "Sketchfab_Scene",
      "nodes": [
        0
      ]
    }
  ],
  "textures": [
    {
      "sampler": 0,
      "source": 0
    },
    {
      "sampler": 0,
      "source": 1
    },
    {
      "sampler": 0,
      "source": 2
    },
    {
      "sampler": 0,
      "source": 3
    },
    {
      "sampler": 0,
      "source": 4
    },
    {
      "sampler": 0,
      "source": 5
    },
    {
      "sampler": 0,
      "source": 6
    },
    {
      "sampler": 0,
      "source": 7
    },
    {
      "sampler": 0,
      "source": 8
    }
  ]
}
